<svg width="16" height="16" viewBox="0 0 16 16" fill="none" xmlns="http://www.w3.org/2000/svg">
<path d="M10.0459 7.60002L3.7207 6.40002V15.2671C3.72063 15.3635 3.73822 15.4589 3.77247 15.548C3.80671 15.637 3.85694 15.7179 3.92028 15.786C3.98361 15.8541 4.0588 15.908 4.14154 15.9448C4.22428 15.9815 4.31293 16.0003 4.40243 16H15.3169C15.4064 16.0004 15.4952 15.9818 15.5781 15.9451C15.661 15.9084 15.7363 15.8545 15.7997 15.7864C15.8632 15.7183 15.9135 15.6374 15.9479 15.5482C15.9822 15.4591 15.9998 15.3636 15.9997 15.2671V12L10.0459 7.60002Z" fill="#185C37"/>
<path d="M10.0459 2.32795e-06H4.40243C4.31293 -0.000240669 4.22428 0.0185422 4.14154 0.0552738C4.0588 0.0920053 3.98361 0.145963 3.92028 0.214054C3.85694 0.282144 3.80671 0.363028 3.77247 0.452067C3.73822 0.541106 3.72063 0.63655 3.7207 0.732925V4L10.0459 8L13.3951 9.2L15.9997 8V4L10.0459 2.32795e-06Z" fill="#21A366"/>
<path d="M3.7207 4H10.0459V8H3.7207V4Z" fill="#107C41"/>
<path opacity="0.1" d="M8.24762 3.19995H3.7207V13.1999H8.24762C8.428 13.199 8.60077 13.1215 8.72848 12.9843C8.85619 12.8471 8.92856 12.6613 8.92991 12.467V3.93287C8.92856 3.73862 8.85619 3.55276 8.72848 3.41558C8.60077 3.27839 8.428 3.20092 8.24762 3.19995Z" fill="black"/>
<path opacity="0.2" d="M7.87561 3.59998H3.7207V13.6H7.87561C8.056 13.599 8.22876 13.5215 8.35647 13.3843C8.48419 13.2472 8.55656 13.0613 8.55791 12.8671V4.3329C8.55656 4.13865 8.48419 3.95279 8.35647 3.8156C8.22876 3.67841 8.056 3.60094 7.87561 3.59998Z" fill="black"/>
<path opacity="0.2" d="M7.87561 3.59998H3.7207V12.8H7.87561C8.056 12.799 8.22876 12.7215 8.35647 12.5843C8.48419 12.4472 8.55656 12.2613 8.55791 12.067V4.3329C8.55656 4.13865 8.48419 3.95279 8.35647 3.8156C8.22876 3.67841 8.056 3.60094 7.87561 3.59998Z" fill="black"/>
<path opacity="0.2" d="M7.50361 3.59998H3.7207V12.8H7.50361C7.68399 12.799 7.85676 12.7215 7.98447 12.5843C8.11218 12.4472 8.18455 12.2613 8.1859 12.067V4.3329C8.18455 4.13865 8.11218 3.95279 7.98447 3.8156C7.85676 3.67841 7.68399 3.60094 7.50361 3.59998Z" fill="black"/>
<path d="M0.682295 3.59998H7.5041C7.6848 3.59982 7.85818 3.67692 7.98611 3.81436C8.11405 3.95179 8.18609 4.1383 8.18639 4.3329V11.6671C8.18609 11.8617 8.11405 12.0482 7.98611 12.1856C7.85818 12.323 7.6848 12.4001 7.5041 12.4H0.682295C0.592755 12.4003 0.504036 12.3816 0.421233 12.3449C0.338429 12.3082 0.26317 12.2542 0.199775 12.1861C0.136381 12.118 0.086099 12.0371 0.0518162 11.9481C0.0175334 11.859 -7.5507e-05 11.7635 2.43361e-07 11.6671V4.3329C-7.5507e-05 4.23648 0.0175334 4.14098 0.0518162 4.0519C0.086099 3.96282 0.136381 3.88191 0.199775 3.81381C0.26317 3.74571 0.338429 3.69177 0.421233 3.65507C0.504036 3.61838 0.592755 3.59966 0.682295 3.59998Z" fill="url(#paint0_linear_112_433)"/>
<path d="M2.11426 10.3833L3.54913 7.99319L2.23483 5.61658H3.29027L4.00743 7.13842C4.07371 7.28242 4.12171 7.3895 4.14343 7.46088H4.15314C4.2 7.3456 4.24952 7.2336 4.30172 7.12488L5.06858 5.61904H6.04002L4.69201 7.98212L6.07431 10.3852H5.04058L4.212 8.71688C4.17364 8.6451 4.14095 8.56996 4.11428 8.49227H4.10057C4.07635 8.56799 4.04414 8.64046 4.00457 8.70827L3.15141 10.3833H2.11426Z" fill="white"/>
<path d="M15.3179 4.13831e-06H10.0464V4H16.0002V0.732927C16.0003 0.6365 15.9826 0.541006 15.9484 0.451926C15.9141 0.362847 15.8638 0.281936 15.8004 0.213837C15.737 0.145738 15.6618 0.0917933 15.5789 0.055098C15.4961 0.0184028 15.4074 -0.000320021 15.3179 4.13831e-06Z" fill="#33C481"/>
<path d="M10.0464 8H16.0002V12H10.0464V8Z" fill="#107C41"/>
<defs>
<linearGradient id="paint0_linear_112_433" x1="1.42516" y1="3.02398" x2="7.3759" y2="12.5938" gradientUnits="userSpaceOnUse">
<stop stop-color="#18884F"/>
<stop offset="0.5" stop-color="#117E43"/>
<stop offset="1" stop-color="#0B6631"/>
</linearGradient>
</defs>
</svg>
