<svg width="14" height="16" viewBox="0 0 14 16" fill="none" xmlns="http://www.w3.org/2000/svg">
<path d="M3.7507 9.13229V14.7364C3.7507 15.0715 3.62651 15.3929 3.40544 15.6299C3.18438 15.8668 2.88455 16 2.57192 16H1.18646C1.03102 16.0011 0.876913 15.9692 0.733011 15.9062C0.58911 15.8431 0.458257 15.7502 0.347985 15.6328C0.237712 15.5153 0.150199 15.3757 0.0904812 15.2218C0.0307637 15.068 2.174e-05 14.903 2.50173e-05 14.7364V9.13229C-0.000991883 8.96497 0.0290019 8.7991 0.0882659 8.64431C0.14753 8.48952 0.234884 8.34888 0.345258 8.23057C0.455632 8.11226 0.586828 8.01862 0.731233 7.95509C0.875637 7.89156 1.03037 7.85941 1.18646 7.8605H2.57192C2.72736 7.8605 2.88128 7.89345 3.02479 7.95746C3.16831 8.02148 3.2986 8.11529 3.40816 8.23349C3.51772 8.3517 3.60439 8.49196 3.66318 8.64622C3.72197 8.80047 3.75171 8.96567 3.7507 9.13229ZM8.87918 1.27179V14.7364C8.87918 14.903 8.84844 15.068 8.78872 15.2218C8.729 15.3757 8.64149 15.5153 8.53122 15.6328C8.42095 15.7502 8.29009 15.8431 8.14619 15.9062C8.00229 15.9692 7.84818 16.0011 7.69274 16H6.30729C5.99394 16 5.69332 15.8671 5.47104 15.6304C5.24876 15.3936 5.12287 15.0723 5.12085 14.7364V1.27179C5.12285 0.935156 5.2485 0.612919 5.47056 0.374877C5.69263 0.136834 5.99324 0.0021511 6.30729 0H7.69274C8.0074 0 8.30918 0.133992 8.53168 0.372499C8.75418 0.611007 8.87918 0.934492 8.87918 1.27179ZM14 5.52204V14.7364C14 15.0715 13.8758 15.3929 13.6547 15.6299C13.4337 15.8668 13.1338 16 12.8212 16H11.4358C11.2803 16.0011 11.1262 15.9692 10.9823 15.9062C10.8384 15.8431 10.7076 15.7502 10.5973 15.6328C10.487 15.5153 10.3995 15.3757 10.3398 15.2218C10.2801 15.068 10.2493 14.903 10.2493 14.7364V5.52204C10.2493 5.35503 10.28 5.18965 10.3396 5.03535C10.3993 4.88105 10.4867 4.74085 10.5968 4.62275C10.707 4.50465 10.8378 4.41097 10.9817 4.34706C11.1257 4.28314 11.28 4.25025 11.4358 4.25025H12.8518C13.1598 4.2609 13.4518 4.39959 13.6661 4.63695C13.8804 4.87431 14.0002 5.19173 14 5.52204Z" fill="#488BFF"/>
</svg>
