<svg width="12" height="16" viewBox="0 0 12 16" fill="none" xmlns="http://www.w3.org/2000/svg">
<path d="M1.26872 8.57852C1.26872 4.67515 3.23031 1.33948 6.00034 0C8.76969 1.33948 10.732 4.67515 10.732 8.57852C10.7311 9.21067 10.6813 9.82517 10.5826 10.422L11.8939 11.8275C11.9482 11.8856 11.9841 11.9626 11.9958 12.0462C12.0075 12.1299 11.9945 12.2157 11.9588 12.2901L10.2723 15.7999C10.2472 15.8523 10.2116 15.8973 10.1684 15.9314C10.1252 15.9654 10.0757 15.9876 10.0236 15.9961C9.97157 16.0046 9.9185 15.9992 9.86862 15.9803C9.81874 15.9614 9.77343 15.9296 9.73629 15.8874L8.22555 14.1735C8.09882 14.0296 7.92691 13.9488 7.74766 13.9487H4.25234C4.07309 13.9488 3.90118 14.0296 3.77445 14.1735L2.26371 15.8874C2.22657 15.9295 2.1813 15.9611 2.1315 15.9799C2.08169 15.9987 2.02871 16.0041 1.97676 15.9956C1.92482 15.9871 1.87532 15.965 1.83221 15.931C1.78909 15.8971 1.75354 15.8522 1.72836 15.7999L0.0412012 12.2901C0.00547402 12.2157 -0.00753558 12.1299 0.00420386 12.0462C0.0159433 11.9626 0.0517708 11.8856 0.106092 11.8275L1.41743 10.422C1.31919 9.82517 1.26962 9.21067 1.26872 8.57852ZM2.26574 13.7155L2.81799 13.0887C3.00627 12.8748 3.22986 12.705 3.47597 12.5892C3.72209 12.4733 3.9859 12.4137 4.25234 12.4136H7.74766C8.0141 12.4137 8.27791 12.4733 8.52403 12.5892C8.77014 12.705 8.99373 12.8748 9.18201 13.0887L9.73426 13.7155L10.398 12.3346L9.6545 11.5367C9.49017 11.3606 9.36737 11.1405 9.29735 10.8966C9.22732 10.6526 9.2123 10.3927 9.25366 10.1405C9.33843 9.62541 9.38075 9.1025 9.38007 8.57852C9.38007 5.60956 8.03155 2.97816 6.00034 1.70466C3.96912 2.97816 2.62061 5.60956 2.62061 8.57852C2.62061 9.1094 2.66252 9.63006 2.74634 10.1405C2.7877 10.3927 2.77268 10.6526 2.70265 10.8966C2.63263 11.1405 2.50983 11.3606 2.3455 11.5367L1.60196 12.3346L2.26574 13.7155ZM6.00034 8.57852C5.64179 8.57852 5.29794 8.41687 5.04441 8.12912C4.79088 7.84137 4.64845 7.45111 4.64845 7.04417C4.64845 6.63724 4.79088 6.24698 5.04441 5.95923C5.29794 5.67148 5.64179 5.50983 6.00034 5.50983C6.35888 5.50983 6.70274 5.67148 6.95627 5.95923C7.2098 6.24698 7.35223 6.63724 7.35223 7.04417C7.35223 7.45111 7.2098 7.84137 6.95627 8.12912C6.70274 8.41687 6.35888 8.57852 6.00034 8.57852Z" fill="white"/>
</svg>
