<svg width="18" height="18" viewBox="0 0 18 18" fill="none" xmlns="http://www.w3.org/2000/svg">
<path d="M16.6001 16.6L12.7397 12.7396M12.7397 12.7396C13.4 12.0793 13.9238 11.2953 14.2812 10.4326C14.6386 9.56979 14.8225 8.64508 14.8225 7.71122C14.8225 6.77736 14.6386 5.85265 14.2812 4.98988C13.9238 4.1271 13.4 3.34317 12.7397 2.68283C12.0794 2.02249 11.2954 1.49869 10.4327 1.14131C9.56988 0.783943 8.64517 0.600006 7.71131 0.600006C6.77745 0.600006 5.85274 0.783943 4.98997 1.14131C4.12719 1.49869 3.34326 2.02249 2.68292 2.68283C1.34931 4.01644 0.600098 5.82521 0.600098 7.71122C0.600098 9.59723 1.34931 11.406 2.68292 12.7396C4.01653 14.0732 5.8253 14.8224 7.71131 14.8224C9.59732 14.8224 11.4061 14.0732 12.7397 12.7396Z" stroke="#A3ABBC" stroke-width="1.2" stroke-linecap="round" stroke-linejoin="round"/>
</svg>
